<svg id="_030-search" data-name="030-search" xmlns="http://www.w3.org/2000/svg" width="64" height="64" viewBox="0 0 64 64">
  <path id="Path" d="M41.822,7.158a24.356,24.356,0,0,0-37.953,30L1.356,39.71,0,45.855l4.214,4.214,5.092-2.408,2.513-2.55a24.356,24.356,0,0,0,30-37.953Z" transform="translate(15.02)" fill="#676e74"/>
  <path id="Path-2" data-name="Path" d="M7.744,40.5l2.513-2.55A24.356,24.356,0,0,0,40.259,0L0,40.259l2.651,2.652Z" transform="translate(16.583 7.158)" fill="#474f54"/>
  <path id="Path-3" data-name="Path" d="M35.211,6.042a20.626,20.626,0,1,0,6.042,14.585A20.56,20.56,0,0,0,35.211,6.042Z" transform="translate(19.001 3.746)" fill="#64e1dc"/>
  <path id="Path-4" data-name="Path" d="M35.212,14.585A20.56,20.56,0,0,0,29.17,0L0,29.17A20.627,20.627,0,0,0,35.212,14.585Z" transform="translate(25.042 9.787)" fill="#00c8c8"/>
  <path id="Path-5" data-name="Path" d="M33.8,12.165A35.02,35.02,0,0,0,26.516,3.8C23.886,1.683,20.694,0,17.186,0,7.944,0,.872,11.668.575,12.165L0,13.126l.575.961a35,35,0,0,0,7.28,8.369c2.631,2.113,5.823,3.8,9.331,3.8,9.242,0,16.314-11.668,16.611-12.165l.575-.961Z" transform="translate(22.442 11.246)" fill="#efeff4"/>
  <path id="Path-6" data-name="Path" d="M25.941,10.292l.575-.961-.575-.961A35.02,35.02,0,0,0,18.661,0L0,18.661c2.631,2.113,5.823,3.8,9.331,3.8,9.242,0,16.314-11.668,16.611-12.165Z" transform="translate(30.297 15.042)" fill="#dadae5"/>
  <path id="Path-7" data-name="Path" d="M9.6,1.65a5.623,5.623,0,1,0,1.649,3.976A5.607,5.607,0,0,0,9.6,1.65Z" transform="translate(34.002 18.747)" fill="#64e1dc"/>
  <path id="Path-8" data-name="Path" d="M9.6,3.976A5.608,5.608,0,0,0,7.952,0L0,7.952A5.623,5.623,0,0,0,9.6,3.976Z" transform="translate(35.652 20.396)" fill="#00c8c8"/>
  <path id="Path-9" data-name="Path" d="M3.2.549A1.875,1.875,0,1,0,3.75,1.875,1.869,1.869,0,0,0,3.2.549Z" transform="translate(37.753 22.497)" fill="#676e74"/>
  <path id="Path-10" data-name="Path" d="M3.2,1.326A1.871,1.871,0,0,0,2.651,0L0,2.651A1.875,1.875,0,0,0,3.2,1.326Z" transform="translate(38.302 23.046)" fill="#474f54"/>
  <path id="Path-11" data-name="Path" d="M20.333,3.957,16.376,0,0,16.339l3.975,3.976L7.951,24.29,24.327,7.951Z" transform="translate(0 39.71)" fill="#575c60"/>
  <path id="Path-12" data-name="Path" d="M20.352,3.994,16.358,0,0,16.358l3.976,3.975Z" transform="translate(3.975 43.667)" fill="#333637"/>
</svg>
